<svg xmlns="http://www.w3.org/2000/svg" viewBox="0 0 120 140" fill="none">
  <!-- Premium Interlocking A&H Monogram -->
  <defs>
    <linearGradient id="gold" x1="0%" y1="0%" x2="100%" y2="100%">
      <stop offset="0%" stop-color="#C9A86C"/>
      <stop offset="50%" stop-color="#B8986B"/>
      <stop offset="100%" stop-color="#A6875A"/>
    </linearGradient>
  </defs>

  <g fill="url(#gold)">
    <!-- Central A - triangular form -->
    <path d="M60 8L28 108h10l6-18h32l6 18h10L60 8zm0 18l12 36H48l12-36z"/>

    <!-- Left H pillar with serifs -->
    <path d="M16 24h8v92h-8z"/>
    <path d="M10 24h20v5H10zM10 111h20v5H10z"/>

    <!-- Right H pillar with serifs -->
    <path d="M96 24h8v92h-8z"/>
    <path d="M90 24h20v5H90zM90 111h20v5H90z"/>

    <!-- H crossbar - weaves through A -->
    <path d="M24 64h20v7H24zM76 64h20v7H76z"/>

    <!-- Subtle accent curve - tighter, integrated within letterforms -->
    <path d="M40 102Q60 110 80 102" stroke="url(#gold)" stroke-width="1.5" fill="none" opacity="0.4"/>
  </g>
</svg>
