<svg xmlns="http://www.w3.org/2000/svg" viewBox="0 0 180 180" fill="none">
  <!-- Facebook Profile Picture - 180x180 -->
  <defs>
    <linearGradient id="gold" x1="0%" y1="0%" x2="100%" y2="100%">
      <stop offset="0%" stop-color="#C9A86C"/>
      <stop offset="50%" stop-color="#B8986B"/>
      <stop offset="100%" stop-color="#A6875A"/>
    </linearGradient>
  </defs>

  <!-- Navy circle background -->
  <circle cx="90" cy="90" r="90" fill="#2B3A55"/>

  <!-- Subtle radial glow -->
  <circle cx="90" cy="90" r="60" fill="url(#gold)" opacity="0.05"/>

  <!-- Monogram scaled and centered -->
  <g fill="url(#gold)" transform="translate(30, 20) scale(1)">
    <!-- Central A -->
    <path d="M60 8L28 108h10l6-18h32l6 18h10L60 8zm0 18l12 36H48l12-36z"/>
    <!-- Left H pillar -->
    <path d="M16 24h8v92h-8z"/>
    <path d="M10 24h20v5H10zM10 111h20v5H10z"/>
    <!-- Right H pillar -->
    <path d="M96 24h8v92h-8z"/>
    <path d="M90 24h20v5H90zM90 111h20v5H90z"/>
    <!-- H crossbar -->
    <path d="M24 64h20v7H24zM76 64h20v7H76z"/>
    <!-- Inner curve -->
    <path d="M40 102Q60 110 80 102" stroke="url(#gold)" stroke-width="1.5" fill="none" opacity="0.4"/>
  </g>
</svg>
